<svg xmlns="http://www.w3.org/2000/svg" height="25px" viewBox="0 0 24 24"><path d="M23 2a1 1 0 0 0-1.14-1C7.13 3.11 7.16 2.82 7 3.87v11.41C3.28 14-.91 19.41 1.88 22.2c2.36 2.38 7.12-.37 7.12-4V9.87l12-1.72v5.13a4.43 4.43 0 0 0-4.49 1.32c-2.74 2.73-1.51 6.49 1.6 6.49a4.78 4.78 0 0 0 3.38-1.52A4.6 4.6 0 0 0 23 16.2zM4.12 21.09c-1.34.08-1.55-1.72-.2-3.08.76-.75 2.13-1.28 2.79-.63 1.01 1.01-.71 3.71-2.59 3.71zM9 7.85v-3l12-1.7v3zm11.07 10.31c-.8.79-2.13 1.28-2.78.63-1-1 .65-3.7 2.6-3.7 1.51 0 1.39 1.91.18 3.07z"/></svg>